<?xml version="1.0" standalone="no"?>
<!DOCTYPE svg PUBLIC "-//W3C//DTD SVG 20010904//EN"
 "http://www.w3.org/TR/2001/REC-SVG-20010904/DTD/svg10.dtd">
<svg version="1.0" xmlns="http://www.w3.org/2000/svg"
 width="512.000000pt" height="512.000000pt" viewBox="0 0 512.000000 512.000000"
 preserveAspectRatio="xMidYMid meet">
<metadata>
Created by potrace 1.11, written by Peter Selinger 2001-2013
</metadata>
<g transform="translate(0.000000,512.000000) scale(0.100000,-0.100000)"
fill="#000000" stroke="none">
<path d="M2623 4983 c-18 -9 -33 -20 -33 -25 0 -4 -5 -8 -10 -8 -6 0 -21 -11
-34 -25 -13 -13 -26 -22 -29 -18 -4 3 -7 -1 -7 -10 0 -9 -3 -17 -8 -17 -4 0
-22 -13 -40 -30 -18 -16 -30 -30 -27 -30 3 0 -5 -11 -19 -24 -15 -13 -26 -29
-26 -35 0 -7 -4 -9 -10 -6 -5 3 -10 -1 -10 -10 0 -9 -5 -13 -10 -10 -6 4 -10
3 -9 -2 3 -17 -14 -53 -22 -47 -8 5 -14 -19 -9 -41 1 -5 -2 -7 -6 -2 -12 12
-81 -139 -76 -165 1 -5 -2 -8 -6 -8 -8 0 -12 -21 -15 -72 -1 -16 -5 -28 -8
-28 -10 0 -5 -222 4 -237 5 -7 6 -17 2 -22 -3 -5 -2 -12 3 -15 4 -2 14 -28 22
-55 7 -28 17 -51 22 -51 4 0 8 -6 8 -14 0 -8 6 -17 13 -19 9 -4 9 -6 0 -6 -8
-1 -5 -9 7 -21 12 -12 18 -25 15 -30 -4 -6 -2 -10 3 -10 5 0 26 -25 46 -55 21
-30 42 -52 47 -50 4 3 6 -4 4 -16 -2 -12 -2 -19 1 -16 10 10 56 -42 48 -55 -4
-6 -3 -9 2 -5 8 5 43 -30 181 -179 17 -19 28 -34 25 -34 -4 0 4 -8 18 -18 14
-9 26 -23 28 -31 2 -8 12 -22 23 -32 10 -9 19 -21 19 -26 0 -6 7 -16 15 -23 8
-7 15 -22 15 -34 0 -13 3 -17 8 -9 5 8 11 3 19 -13 8 -18 8 -22 0 -17 -7 4 -6
0 1 -10 8 -9 11 -21 7 -26 -4 -7 1 -8 11 -4 12 4 15 3 10 -5 -4 -6 -2 -21 4
-32 6 -11 11 -36 12 -55 1 -19 5 -35 9 -35 4 0 6 -11 5 -25 0 -14 -5 -25 -11
-25 -5 0 -4 -4 4 -9 10 -7 11 -13 1 -31 -7 -12 -8 -20 -3 -17 5 4 10 0 10 -8
0 -8 -4 -12 -9 -9 -4 3 -8 -10 -8 -28 0 -19 -5 -39 -12 -46 -7 -7 -8 -12 -3
-12 6 0 3 -5 -5 -10 -11 -7 -12 -10 -2 -10 10 0 9 -4 -2 -16 -9 -8 -14 -20
-11 -25 4 -5 2 -9 -3 -9 -5 0 -15 -18 -22 -40 -7 -22 -17 -40 -22 -40 -4 0 -3
-8 3 -18 6 -10 19 -18 29 -18 10 0 16 4 14 8 -5 8 12 12 31 8 6 -1 7 1 3 5 -8
9 14 35 25 28 4 -2 7 1 7 7 0 6 5 8 10 5 6 -3 10 1 10 9 0 9 5 16 10 16 6 0
19 9 30 20 11 11 20 17 20 14 0 -3 7 2 16 10 8 9 12 22 8 28 -4 7 -4 10 1 6 8
-8 56 38 90 86 11 16 25 33 30 40 6 6 16 23 24 39 8 15 18 27 23 27 5 0 7 4 3
9 -3 5 2 16 10 25 8 8 18 29 21 45 4 18 11 28 17 24 5 -3 7 -2 4 4 -3 5 1 22
9 38 8 15 12 30 10 33 -3 2 1 20 10 40 8 19 12 37 9 40 -3 3 1 12 8 20 6 9 7
13 1 9 -6 -3 -11 0 -11 8 0 8 4 12 10 8 12 -7 6 48 -8 66 -7 11 -7 13 3 7 9
-6 12 5 11 43 -1 28 -6 48 -10 46 -4 -3 -5 4 -2 14 3 11 0 36 -7 56 -7 20 -13
43 -14 50 -1 8 -5 18 -9 21 -4 4 -7 16 -7 26 0 10 -4 18 -10 18 -5 0 -10 9
-10 19 0 11 -5 23 -10 26 -6 4 -8 11 -5 16 4 5 1 9 -4 9 -6 0 -11 7 -11 16 0
8 -4 12 -10 9 -5 -3 -10 3 -10 14 0 11 -9 27 -21 35 -13 9 -18 19 -14 27 5 8
4 10 -3 5 -7 -4 -12 -1 -12 8 0 8 -14 26 -31 40 -17 14 -28 26 -24 26 3 0 -5
11 -19 23 -14 13 -23 27 -19 30 3 4 -1 7 -10 7 -10 0 -17 7 -17 15 0 8 -7 15
-17 15 -9 0 -14 3 -10 6 3 3 -12 23 -34 45 -21 21 -39 44 -39 50 0 7 -3 10 -6
6 -8 -8 -33 16 -27 26 2 4 -3 7 -11 7 -9 0 -15 3 -14 8 0 4 -2 15 -7 25 -6 15
-10 16 -16 5 -7 -10 -9 -10 -9 2 0 8 -11 27 -25 42 -14 15 -25 32 -25 38 0 5
-7 10 -16 10 -8 0 -13 4 -9 9 3 5 -2 16 -10 25 -9 8 -15 17 -14 18 3 9 -25 57
-32 52 -4 -2 -6 5 -4 16 2 11 0 20 -6 20 -5 0 -9 9 -9 20 0 11 -4 20 -8 20 -4
0 -9 14 -10 32 -2 18 -6 35 -10 38 -10 6 -8 82 2 98 4 7 3 12 -2 12 -4 0 -8
13 -8 29 0 17 3 28 8 25 4 -3 8 10 8 29 0 18 3 37 7 41 4 3 8 13 9 21 4 28 57
135 67 135 5 0 4 7 -3 15 -15 19 -26 18 -67 -2z"/>
<path d="M2000 3994 c0 -8 -4 -12 -10 -9 -5 3 -10 0 -10 -8 0 -8 -9 -26 -20
-39 -10 -14 -17 -28 -13 -31 3 -4 -2 -9 -11 -13 -9 -3 -14 -10 -11 -14 3 -5 1
-11 -5 -15 -6 -4 -8 -11 -5 -16 4 -5 2 -9 -2 -9 -5 0 -9 -10 -10 -22 -1 -11
-6 -24 -10 -27 -4 -3 -10 -17 -11 -31 -2 -14 -5 -29 -5 -35 -1 -5 -6 -13 -12
-17 -6 -5 -5 -8 3 -8 6 0 12 -7 12 -15 0 -8 -4 -15 -10 -15 -5 0 -10 -5 -10
-11 0 -5 6 -7 13 -3 9 6 9 4 -1 -8 -9 -11 -10 -18 -2 -23 5 -3 10 -11 10 -16
0 -6 -5 -7 -11 -3 -7 4 -7 -1 1 -16 6 -12 9 -24 6 -27 -3 -3 2 -12 10 -20 9
-9 12 -23 8 -35 -4 -14 -2 -18 5 -14 7 4 11 -1 11 -13 0 -11 5 -23 10 -26 6
-4 8 -11 5 -16 -4 -5 1 -9 10 -9 11 0 15 -5 12 -14 -3 -8 1 -20 10 -27 8 -7
19 -23 24 -36 5 -13 16 -23 26 -23 15 0 16 -2 3 -10 -13 -8 -12 -10 3 -10 9 0
17 -5 17 -11 0 -6 14 -24 30 -39 17 -15 30 -33 30 -39 0 -6 6 -11 14 -11 8 0
18 -9 21 -20 4 -11 11 -18 16 -15 5 4 9 -2 9 -11 0 -10 3 -14 7 -11 3 4 16 -7
28 -23 12 -16 25 -27 28 -23 6 6 11 -12 8 -29 0 -5 3 -7 7 -5 9 2 62 -48 62
-59 0 -4 14 -20 30 -36 28 -26 35 -40 31 -61 -1 -5 2 -6 6 -4 5 3 18 -15 29
-39 12 -24 17 -41 10 -37 -6 4 -5 0 2 -9 7 -9 14 -33 15 -52 1 -20 5 -36 9
-36 5 0 7 -5 5 -11 -3 -17 26 -19 41 -3 7 8 10 14 6 14 -4 0 2 8 12 18 11 9
25 29 33 45 8 15 18 27 23 27 5 0 6 5 3 10 -3 6 -1 10 4 10 6 0 11 12 11 26 0
17 4 23 12 18 8 -5 9 -2 5 9 -3 10 -2 17 2 17 5 0 8 8 7 17 -2 10 3 32 10 50
9 21 10 34 4 38 -6 4 -8 15 -5 26 4 12 2 19 -7 19 -10 0 -10 2 -1 8 10 6 9 13
-1 33 -7 13 -12 34 -11 46 1 12 -2 20 -7 17 -7 -5 -12 10 -9 29 0 4 -3 7 -8 7
-5 0 -12 11 -15 25 -4 14 -11 23 -16 20 -6 -3 -10 0 -10 8 0 8 -14 28 -30 46
-17 17 -28 31 -26 31 3 0 -7 12 -21 28 -14 15 -29 26 -34 24 -5 -1 -9 5 -9 13
0 8 -4 15 -10 15 -5 0 -10 4 -10 10 0 5 -22 32 -50 59 -27 27 -50 54 -50 58 0
5 -10 19 -22 31 -29 26 -48 49 -48 57 0 6 -11 20 -37 50 -7 7 -13 16 -13 18 0
3 -15 32 -33 64 -40 70 -50 103 -64 206 -4 31 -9 37 -29 37 -15 0 -24 -6 -24
-16z"/>
<path d="M1495 3131 c-3 -2 -26 -5 -52 -5 -27 -1 -54 -5 -60 -9 -8 -5 -13 -3
-13 5 0 8 -3 9 -8 3 -9 -12 -32 -13 -51 -1 -10 6 -12 5 -7 -2 7 -12 -21 -17
-74 -14 -19 1 -22 -1 -10 -8 11 -7 4 -10 -25 -10 -23 0 -47 -6 -54 -12 -8 -7
-11 -8 -8 -2 3 6 0 11 -8 11 -8 0 -12 -4 -9 -9 3 -4 -9 -8 -25 -8 -17 0 -31
-4 -31 -9 0 -5 -11 -8 -25 -6 -14 1 -25 -2 -25 -7 0 -5 -6 -8 -12 -5 -7 2 -22
-3 -32 -12 -11 -9 -16 -10 -12 -3 10 17 -2 15 -21 -3 -8 -8 -19 -13 -24 -10
-5 4 -9 1 -9 -4 0 -6 -3 -10 -7 -10 -5 1 -11 0 -15 -1 -5 -1 -11 -4 -15 -5
-34 -11 -73 -31 -73 -38 0 -4 -4 -5 -10 -2 -5 3 -10 1 -10 -5 0 -6 -4 -8 -10
-5 -5 3 -10 2 -10 -4 0 -5 -9 -13 -21 -16 -11 -4 -40 -26 -64 -50 -24 -24 -45
-41 -48 -39 -2 3 -8 -7 -11 -21 -4 -14 -11 -23 -16 -20 -6 3 -10 -5 -10 -19 0
-14 -4 -26 -9 -26 -10 0 -24 -61 -24 -102 0 -16 -5 -28 -11 -28 -6 0 -4 -5 4
-10 9 -6 11 -13 5 -17 -12 -10 -16 -43 -4 -43 8 0 5 -33 -6 -50 -3 -6 -2 -10
3 -10 5 0 9 -22 8 -50 0 -27 2 -50 5 -50 3 0 4 -16 3 -35 -2 -20 0 -33 5 -31
4 3 7 -6 5 -19 -1 -14 2 -27 7 -31 5 -3 9 -11 9 -17 0 -7 -4 -6 -10 3 -7 12
-9 10 -7 -7 0 -12 4 -20 8 -18 3 3 9 -12 12 -33 9 -60 17 -90 29 -119 12 -31
17 -49 20 -75 1 -9 6 -14 10 -12 4 3 8 -6 8 -20 0 -14 4 -26 10 -26 5 0 9 -3
9 -7 -4 -22 2 -43 10 -39 5 4 7 -4 3 -16 -3 -14 -2 -19 6 -14 8 5 12 -1 12
-17 0 -14 7 -30 15 -37 8 -7 15 -21 15 -32 0 -10 4 -16 10 -13 6 3 10 -3 10
-14 0 -12 5 -21 10 -21 6 0 10 -6 10 -14 0 -8 7 -22 16 -30 8 -9 12 -16 7 -16
-4 0 -3 -4 3 -8 6 -4 26 -31 46 -59 19 -29 38 -50 43 -45 5 4 5 2 1 -5 -3 -6
4 -21 16 -32 12 -12 19 -21 15 -21 -4 0 8 -15 27 -34 19 -19 32 -37 29 -39 -2
-3 5 -8 16 -12 12 -3 19 -10 16 -14 -2 -5 11 -21 30 -36 18 -16 32 -33 29 -37
-3 -4 0 -8 5 -8 6 0 30 -18 53 -40 24 -22 47 -40 51 -40 5 0 6 -4 3 -9 -3 -5
8 -14 24 -21 17 -7 30 -19 30 -27 0 -8 4 -12 9 -8 6 3 14 -3 20 -12 6 -10 11
-15 11 -10 0 4 8 -1 18 -10 10 -10 29 -25 42 -33 13 -8 31 -23 41 -32 13 -12
19 -13 23 -5 2 7 5 4 5 -6 1 -10 5 -16 10 -12 6 3 13 -1 18 -8 8 -14 42 -31
56 -29 4 1 7 -2 7 -8 0 -5 7 -10 16 -10 8 0 12 -4 9 -10 -6 -9 25 -15 50 -10
6 1 7 -2 2 -6 -8 -9 159 -94 185 -94 9 0 18 -4 20 -10 2 -5 15 -11 31 -12 15
-1 27 -6 27 -10 0 -4 9 -8 20 -8 11 0 20 -4 20 -9 0 -5 8 -8 18 -7 9 2 19 -1
22 -5 3 -5 20 -9 38 -11 18 -1 32 -6 32 -10 0 -4 3 -7 8 -6 4 1 25 -4 46 -10
22 -6 43 -9 48 -6 4 3 8 0 8 -5 0 -6 15 -11 34 -11 19 0 38 -5 41 -10 5 -8 12
-7 23 2 12 10 14 10 8 1 -5 -10 5 -13 39 -13 34 0 44 -3 39 -12 -5 -8 -1 -8
10 1 11 9 20 11 24 5 4 -5 18 -9 32 -9 14 0 42 -2 63 -6 24 -4 37 -3 37 5 0 7
3 7 8 1 4 -5 16 -10 27 -10 11 0 23 5 27 10 5 6 8 6 8 -2 0 -8 9 -9 30 -3 17
5 30 5 30 2 0 -11 64 -8 72 3 5 7 8 7 8 0 0 -6 19 -9 42 -7 24 2 57 4 75 5 18
2 35 6 39 9 4 4 15 3 25 -3 13 -6 19 -6 19 1 0 5 15 10 33 10 18 0 39 6 46 13
11 10 13 9 7 0 -4 -7 -2 -13 3 -13 6 0 11 4 11 8 0 4 14 9 32 10 17 2 38 8 47
15 12 10 13 9 7 -1 -7 -11 -4 -12 10 -4 11 5 38 13 62 17 23 4 40 10 37 15 -2
4 6 6 18 6 12 -1 34 4 50 11 15 7 27 11 27 7 0 -4 7 -1 15 6 8 7 15 9 15 4 0
-4 7 1 16 12 8 10 13 13 9 7 -3 -7 -1 -13 4 -13 6 0 11 5 11 10 0 6 8 10 18
10 10 0 23 5 30 12 7 7 12 8 12 4 0 -5 7 -2 17 5 9 8 23 14 32 15 25 1 51 15
46 25 -3 4 4 6 15 4 12 -2 20 1 20 10 0 8 8 12 20 10 11 -2 20 0 20 6 0 5 7 9
15 9 8 0 15 5 15 10 0 6 9 10 20 10 11 0 20 5 20 10 0 6 7 10 15 10 8 0 15 4
15 9 0 5 11 12 25 15 14 4 25 11 25 17 0 6 5 7 10 4 6 -3 13 1 16 9 3 9 10 13
15 10 5 -3 9 0 9 5 0 6 7 11 16 11 8 0 12 5 9 10 -3 6 1 10 10 10 8 0 23 9 32
19 9 11 20 18 25 15 4 -3 8 0 8 5 0 6 7 11 16 11 8 0 12 5 9 10 -3 6 1 10 9
10 9 0 16 7 16 16 0 8 4 12 10 9 5 -3 17 3 27 14 9 11 21 17 26 14 6 -3 7 -1
3 6 -4 6 0 14 11 18 21 8 118 105 115 116 -1 4 3 7 9 7 12 0 39 25 39 37 0 4
11 17 25 27 14 10 25 25 25 33 0 8 4 12 9 8 5 -3 12 4 16 15 3 11 11 20 16 20
6 0 7 5 4 10 -3 6 -2 10 3 10 5 0 31 33 58 73 26 39 53 75 58 79 6 4 8 8 3 8
-4 0 4 18 18 40 14 22 25 44 25 49 0 5 7 14 15 21 9 7 13 15 10 18 -2 3 4 19
15 37 11 18 17 35 13 38 -3 4 -1 7 6 7 7 0 9 5 6 10 -3 6 0 13 8 16 8 3 13 13
10 24 -3 10 0 21 6 24 6 4 11 16 11 27 0 10 4 19 9 19 6 0 10 8 10 18 1 34 13
82 22 82 5 0 8 3 8 8 -4 27 3 72 10 67 6 -3 8 6 5 20 -2 14 -1 25 4 25 5 0 7
16 6 35 -2 20 0 34 4 31 4 -2 7 17 6 42 -1 26 4 50 10 55 7 4 8 10 1 15 -13
10 -18 35 -5 27 5 -3 10 -1 10 4 0 6 -5 11 -11 11 -8 0 -7 6 2 17 11 13 11 17
2 20 -7 3 -13 9 -13 14 0 6 3 8 8 6 4 -3 8 10 8 29 1 19 -3 34 -8 34 -5 0 -4
10 3 21 9 17 8 20 -3 13 -11 -6 -11 -5 1 9 10 13 10 17 1 17 -10 0 -10 3 -1
14 8 10 9 16 1 21 -5 3 -10 15 -10 26 0 10 -6 19 -12 19 -10 0 -9 3 1 9 9 6
10 11 2 15 -6 4 -9 12 -5 17 3 5 0 8 -8 7 -7 -2 -12 2 -11 8 1 7 -11 25 -27
42 -15 17 -25 34 -22 38 4 4 2 4 -4 1 -6 -3 -18 2 -27 11 -20 22 -38 36 -57
45 -42 21 -59 35 -52 42 4 5 2 5 -4 2 -6 -3 -22 0 -37 8 -14 7 -28 11 -31 7
-3 -3 -6 3 -6 14 0 14 -2 16 -9 6 -6 -11 -11 -10 -24 3 -9 9 -21 13 -27 10 -5
-3 -10 -1 -10 6 0 7 -3 9 -7 6 -3 -4 -13 -1 -21 6 -13 10 -14 9 -7 -3 5 -10 1
-9 -13 3 -11 11 -26 16 -31 12 -6 -3 -11 -2 -11 4 0 6 -7 8 -16 4 -9 -3 -19
-1 -23 5 -4 6 -23 12 -44 14 -20 1 -37 6 -37 10 0 4 -15 8 -32 8 -18 0 -40 4
-47 9 -9 6 -22 6 -34 -1 -14 -7 -17 -7 -13 1 5 7 -3 11 -21 11 -16 0 -34 5
-40 11 -7 7 -13 8 -17 0 -4 -6 -16 -7 -29 -3 -12 5 -29 8 -37 7 -8 -1 -21 3
-28 9 -9 7 -16 6 -22 -3 -5 -9 -10 -10 -14 -2 -4 6 -12 11 -17 11 -6 0 -7 -6
-3 -12 5 -9 2 -9 -9 1 -12 9 -17 10 -17 2 0 -8 -6 -9 -17 -2 -23 11 -132 11
-139 0 -3 -5 -11 -9 -17 -9 -7 0 -6 4 3 10 8 5 10 10 4 10 -17 0 -37 -27 -29
-40 3 -5 15 -10 26 -10 10 0 19 -6 19 -12 0 -9 3 -9 9 1 8 12 12 12 25 2 9 -8
16 -11 16 -8 0 3 17 1 38 -4 20 -6 42 -11 47 -12 6 -1 16 -6 23 -10 7 -5 12
-3 12 3 0 7 7 7 23 -2 12 -7 28 -11 35 -9 8 1 20 -3 28 -10 8 -6 14 -9 14 -5
0 3 17 -1 37 -9 20 -9 43 -13 49 -11 7 3 14 0 16 -5 2 -6 16 -12 31 -12 15 -1
27 -5 27 -9 0 -5 12 -8 26 -8 15 0 23 -4 19 -11 -4 -6 -1 -9 6 -8 19 3 69 -12
69 -20 0 -4 7 -8 15 -9 8 -1 22 -3 30 -4 8 -1 12 -5 9 -10 -5 -7 10 -12 29 -9
4 0 7 -4 7 -10 0 -5 5 -7 10 -4 6 3 10 1 10 -4 0 -6 6 -11 13 -11 7 0 22 -8
33 -19 11 -10 30 -22 42 -25 12 -4 20 -12 17 -17 -4 -5 0 -9 7 -9 18 0 60 -68
52 -82 -4 -6 -3 -8 3 -5 6 4 10 -8 10 -28 0 -19 -4 -32 -9 -29 -4 3 -8 -2 -8
-10 0 -9 -5 -16 -11 -16 -5 0 -7 -4 -4 -10 3 -5 1 -10 -5 -10 -6 0 -18 -7 -27
-15 -8 -8 -19 -13 -24 -10 -5 4 -9 -1 -9 -9 0 -10 -9 -16 -26 -16 -16 0 -23
-4 -18 -12 5 -7 3 -8 -6 -3 -7 4 -15 2 -20 -4 -4 -7 -17 -13 -28 -14 -12 -1
-22 -4 -22 -7 0 -3 -20 -12 -45 -19 -25 -7 -45 -18 -45 -25 0 -7 -4 -6 -9 3
-6 9 -11 10 -15 2 -4 -6 -12 -9 -17 -6 -5 4 -9 2 -9 -2 0 -5 -9 -10 -20 -11
-42 -4 -50 -6 -50 -11 0 -3 -17 -7 -38 -9 -20 -1 -38 -7 -40 -12 -2 -6 -8 -10
-13 -10 -6 0 -7 5 -3 12 5 7 3 8 -7 2 -17 -10 -38 -15 -61 -15 -10 0 -18 -4
-18 -9 0 -5 -7 -7 -16 -3 -9 3 -20 0 -25 -8 -5 -8 -9 -9 -9 -3 0 11 -24 11
-50 1 -8 -4 -24 -8 -35 -10 -11 -1 -25 -6 -32 -10 -6 -4 -14 -3 -18 3 -4 6
-13 7 -23 1 -9 -4 -25 -7 -34 -6 -10 2 -18 0 -18 -5 0 -4 -10 -6 -22 -2 -16 4
-19 2 -13 -9 7 -11 6 -12 -7 -2 -8 7 -17 11 -20 8 -3 -3 -29 -7 -59 -10 -30
-3 -85 -9 -124 -13 -38 -4 -91 -7 -117 -6 -27 0 -48 -3 -48 -8 0 -4 -5 -8 -11
-8 -5 0 -7 5 -3 11 5 8 1 8 -14 0 -27 -14 -35 -14 -26 1 5 7 3 8 -7 2 -8 -5
-68 -10 -134 -12 -145 -3 -166 -5 -184 -16 -9 -6 -12 -5 -7 2 4 7 -4 10 -23
10 -18 -1 -28 -5 -24 -11 4 -6 1 -7 -8 -1 -13 8 -56 10 -284 17 -49 1 -96 6
-104 11 -10 6 -12 6 -7 -3 5 -8 0 -10 -19 -7 -15 3 -30 7 -32 10 -3 3 -15 1
-28 -4 -13 -5 -26 -6 -30 -2 -3 4 -18 7 -33 8 -105 6 -129 8 -146 17 -13 6
-16 6 -12 -2 10 -16 -6 -14 -30 4 -12 8 -24 11 -28 8 -12 -12 -36 -12 -36 0 0
8 -3 8 -8 2 -9 -12 -44 -16 -36 -4 5 8 -26 12 -88 11 -16 0 -28 3 -28 7 0 4
-26 9 -57 10 -32 1 -61 8 -65 14 -5 9 -8 8 -8 -3 0 -9 -3 -11 -8 -5 -4 6 -23
12 -42 14 -19 1 -36 6 -38 10 -1 4 -16 5 -32 3 -17 -2 -30 0 -30 5 0 5 -6 10
-12 10 -34 3 -76 11 -87 17 -11 7 -41 14 -78 18 -7 1 -13 4 -13 8 0 5 -18 9
-57 12 -7 1 -13 5 -13 10 0 4 -9 8 -21 8 -13 0 -18 4 -13 12 4 7 3 8 -4 4 -6
-4 -24 0 -40 8 -16 8 -32 12 -36 9 -3 -4 -6 -1 -6 5 0 7 -9 12 -21 12 -11 0
-17 5 -14 10 3 6 0 10 -8 10 -8 0 -24 9 -36 19 -13 11 -26 21 -29 23 -13 6
-41 65 -35 72 4 4 8 17 10 29 2 12 8 24 13 25 6 2 10 8 10 12 0 13 48 59 54
52 3 -3 6 2 6 12 0 9 4 14 10 11 6 -3 10 -1 10 5 0 6 5 8 10 5 6 -3 13 1 16 9
3 9 15 16 26 16 12 0 17 4 12 12 -4 7 -3 8 5 4 6 -4 18 0 27 8 9 9 20 14 25
11 5 -4 9 -1 9 4 0 6 12 11 26 11 16 0 23 4 18 11 -5 8 1 10 19 7 15 -3 25 -1
24 6 -1 5 7 10 18 10 11 0 22 3 25 6 3 3 16 11 29 18 19 11 22 11 15 0 -6 -10
-5 -11 8 -1 8 7 18 10 21 6 4 -3 7 -1 7 6 0 7 4 10 9 6 5 -3 12 -1 15 4 4 5
14 8 24 7 9 -2 20 1 23 7 4 5 20 9 35 9 16 0 34 4 40 9 6 5 23 10 38 11 14 1
26 5 26 9 0 4 10 5 22 1 14 -3 19 -2 14 6 -5 9 0 9 19 2 17 -7 24 -7 20 0 -4
6 5 10 20 10 15 0 36 5 47 11 11 6 18 7 15 2 -4 -5 0 -10 8 -10 8 0 12 4 9 9
-5 7 18 12 39 9 14 -2 7 37 -9 43 -10 4 -13 2 -8 -7 6 -9 5 -9 -7 0 -13 10
-174 15 -184 4z m-355 -973 c3 -4 19 -10 35 -13 17 -3 35 -7 42 -9 7 -1 15 -5
19 -8 3 -4 12 -4 20 -1 8 3 14 1 14 -5 0 -5 15 -9 34 -8 19 1 32 -2 30 -6 -5
-7 27 -13 49 -9 4 0 7 -3 7 -9 0 -5 5 -10 11 -10 5 0 8 4 5 9 -3 5 11 3 32 -5
20 -7 47 -13 60 -14 32 0 52 -23 52 -60 0 -22 4 -29 13 -24 8 5 8 2 -2 -9 -11
-14 -11 -17 0 -17 11 0 11 -2 -1 -10 -10 -6 -11 -10 -2 -10 7 0 12 -14 12 -35
0 -19 5 -35 10 -35 6 0 10 -5 10 -11 0 -5 -6 -7 -12 -3 -10 6 -10 4 0 -7 6 -7
12 -23 12 -36 0 -13 5 -23 12 -23 6 0 8 -3 5 -7 -4 -3 -1 -13 6 -21 9 -12 9
-14 0 -9 -9 5 -8 -3 3 -28 8 -20 12 -41 8 -47 -4 -6 -3 -9 2 -5 5 3 14 -6 21
-19 6 -13 7 -22 3 -19 -5 3 0 -12 10 -32 10 -21 16 -41 13 -45 -2 -5 0 -8 4
-8 9 0 37 -59 34 -72 0 -5 4 -8 10 -8 5 0 7 -4 4 -10 -3 -5 -2 -10 2 -10 10 0
49 -80 45 -92 -1 -5 4 -7 11 -5 6 1 11 -4 10 -10 -2 -7 2 -13 7 -13 6 0 10 -5
10 -10 0 -11 13 -28 44 -60 11 -11 16 -20 10 -20 -5 0 -1 -5 9 -11 9 -5 17
-17 17 -25 0 -8 5 -12 10 -9 6 3 10 0 10 -8 0 -8 7 -18 16 -21 8 -3 13 -10 10
-15 -3 -5 4 -11 15 -14 14 -4 18 -10 13 -18 -6 -10 -9 -10 -12 -1 -2 7 -12 12
-23 12 -10 0 -19 5 -19 12 0 6 -3 8 -6 5 -4 -4 -19 2 -34 13 -15 11 -29 17
-32 15 -3 -3 -13 4 -23 15 -10 11 -27 20 -37 20 -11 0 -16 5 -13 10 3 5 -3 10
-14 10 -12 0 -21 3 -21 8 0 4 -8 12 -19 17 -38 20 -100 65 -125 90 -14 14 -28
25 -31 25 -3 0 -23 18 -45 40 -22 22 -44 40 -50 40 -5 0 -10 6 -10 14 0 8 -7
17 -16 20 -9 4 -14 9 -11 12 3 3 -5 16 -19 29 -13 12 -24 27 -24 34 0 6 -7 11
-15 11 -8 0 -15 9 -15 21 0 11 -4 17 -10 14 -5 -3 -10 0 -10 8 0 8 -7 17 -15
21 -8 3 -15 12 -15 21 0 8 -5 15 -12 15 -6 0 -8 3 -5 7 4 3 1 13 -7 22 -21 25
-66 110 -66 126 0 8 -5 15 -11 15 -6 0 -9 7 -5 15 3 8 1 15 -4 15 -6 0 -10 9
-10 21 0 13 -4 18 -12 13 -8 -5 -7 0 2 11 9 11 10 16 3 11 -9 -5 -13 -1 -13
13 0 11 -4 22 -9 25 -4 3 -8 16 -7 28 1 13 -2 26 -7 29 -5 4 -9 23 -9 43 0 20
-3 36 -7 36 -4 0 -8 16 -9 35 -2 33 12 44 28 23z m2875 -16 c-2 -15 -4 -38 -4
-52 -1 -20 -3 -22 -11 -10 -5 8 -10 10 -10 5 0 -6 5 -16 12 -23 9 -9 9 -12 0
-12 -7 0 -11 -3 -10 -7 3 -14 -14 -78 -32 -116 -10 -21 -13 -35 -7 -31 7 3 5
0 -4 -8 -9 -7 -15 -21 -13 -30 1 -9 -4 -22 -12 -29 -8 -6 -14 -18 -14 -25 0
-8 -5 -14 -11 -14 -6 0 -9 -7 -5 -15 3 -8 1 -15 -5 -15 -6 0 -8 -4 -5 -8 3 -5
-3 -14 -14 -22 -10 -7 -16 -20 -12 -28 3 -10 1 -13 -6 -8 -8 5 -12 -1 -12 -15
0 -12 -3 -19 -6 -16 -4 4 -16 -11 -26 -33 -11 -22 -24 -37 -29 -34 -5 3 -9 -1
-9 -9 0 -8 -17 -33 -39 -55 -21 -21 -40 -43 -42 -48 -2 -5 -21 -23 -41 -41
-20 -17 -34 -34 -31 -37 4 -3 -1 -6 -10 -6 -9 0 -21 -9 -27 -20 -6 -11 -15
-18 -21 -15 -8 6 -13 -8 -10 -28 1 -5 -3 -6 -7 -3 -5 3 -20 -4 -33 -15 -13
-11 -36 -28 -51 -37 -16 -9 -28 -20 -28 -25 0 -4 -4 -5 -10 -2 -5 3 -10 2 -10
-4 0 -5 -10 -13 -22 -17 -12 -3 -31 -15 -42 -25 -11 -11 -25 -19 -32 -19 -6 0
-17 -7 -24 -15 -7 -8 -23 -15 -37 -15 -14 0 -21 -4 -18 -10 3 -6 -5 -10 -18
-10 -14 0 -28 -7 -31 -16 -3 -8 -10 -13 -15 -9 -6 3 -8 12 -5 20 4 8 9 13 13
11 3 -2 12 2 19 10 7 8 11 14 8 14 -3 0 7 13 22 28 37 40 93 119 118 169 12
24 24 40 28 36 5 -6 10 21 7 40 -1 5 3 6 8 3 5 -4 12 7 16 24 4 16 11 30 16
30 5 0 9 9 9 20 0 11 4 20 10 20 5 0 9 3 8 8 -2 9 9 38 33 85 10 21 13 35 7
31 -6 -4 -4 3 5 15 8 13 13 30 10 39 -5 11 -3 13 7 7 9 -5 11 -4 6 3 -4 6 -2
20 3 30 5 10 11 29 13 43 2 13 7 29 10 35 4 6 8 29 9 52 2 23 7 42 12 42 5 0
7 6 4 13 -3 8 -1 20 3 28 5 7 5 18 -1 25 -6 8 -5 13 4 17 9 3 13 16 11 32 -1
15 0 24 3 22 3 -3 16 -2 30 4 15 6 22 5 18 -1 -3 -5 10 -3 30 5 19 9 35 12 35
9 0 -4 8 0 17 7 9 8 14 9 10 3 -3 -6 0 -11 8 -11 8 0 12 4 10 7 -4 7 63 22 76
17 3 -1 12 3 20 9 8 6 22 10 32 9 9 -2 17 2 17 8 0 5 3 7 7 4 3 -4 13 -1 21 6
13 10 14 9 7 -2 -6 -11 -5 -12 6 -5 8 4 21 9 29 11 8 1 16 6 17 10 2 5 12 9
22 10 16 1 19 -4 16 -25z"/>
<path d="M817 1314 c-3 -4 -24 -6 -47 -6 -22 0 -40 -3 -40 -7 0 -5 -12 -6 -26
-3 -20 4 -25 2 -19 -8 6 -9 3 -9 -15 0 -15 8 -20 8 -16 1 5 -7 -4 -11 -24 -11
-21 0 -29 -4 -24 -12 5 -7 2 -9 -8 -5 -9 3 -19 3 -23 -1 -4 -4 -10 -7 -13 -8
-14 -1 -108 -49 -120 -61 -7 -7 -20 -13 -28 -13 -8 0 -12 -4 -9 -10 3 -5 -1
-10 -9 -10 -8 0 -21 -9 -29 -20 -8 -11 -17 -17 -20 -13 -4 3 -7 1 -7 -5 0 -6
-6 -17 -12 -24 -29 -30 -59 -101 -61 -143 -1 -25 -6 -45 -12 -45 -5 0 -4 -5 3
-12 7 -7 12 -21 12 -33 0 -25 22 -75 33 -75 5 0 5 -5 2 -10 -3 -6 1 -13 10
-16 9 -4 14 -13 11 -21 -3 -8 -1 -11 4 -8 6 3 10 -1 10 -10 0 -9 4 -14 9 -11
4 3 13 -6 19 -19 7 -14 17 -25 25 -25 7 0 19 -9 27 -20 8 -11 20 -20 27 -20 7
0 13 -3 13 -8 0 -4 16 -16 35 -26 19 -11 35 -24 35 -29 0 -6 3 -7 7 -4 3 4 12
-1 19 -11 11 -14 13 -14 14 -2 0 12 3 11 11 -2 5 -10 19 -18 29 -18 11 0 20
-4 20 -10 0 -5 9 -10 20 -10 11 0 20 -4 20 -10 0 -5 9 -10 19 -10 11 0 23 -5
26 -11 4 -6 14 -8 22 -5 9 4 11 2 7 -6 -5 -8 -2 -9 9 -5 10 3 17 2 17 -4 0 -6
5 -7 10 -4 6 3 10 1 10 -4 0 -6 3 -10 8 -10 16 3 72 -14 72 -22 0 -5 14 -9 30
-9 17 0 30 -4 30 -10 0 -5 14 -10 30 -10 17 0 30 -5 30 -11 0 -6 7 -8 16 -5 9
3 21 3 27 -1 7 -4 18 -9 25 -10 6 -2 18 -4 25 -6 6 -1 18 -7 26 -11 9 -6 12
-5 7 2 -4 7 4 6 20 -3 15 -7 33 -11 40 -8 8 3 14 0 14 -7 0 -6 4 -8 10 -5 5 3
19 1 31 -6 17 -9 20 -8 13 3 -6 10 -4 10 9 -1 10 -8 31 -14 47 -13 17 0 30 -4
30 -9 0 -5 3 -8 8 -8 28 5 92 -3 88 -10 -8 -12 27 -8 36 4 5 6 8 6 8 -1 0 -7
9 -14 20 -17 11 -3 20 -1 20 4 0 5 12 1 27 -8 19 -13 25 -14 18 -4 -6 11 -4
13 11 6 10 -4 31 -8 46 -9 14 0 24 -4 21 -8 -2 -5 1 -8 6 -8 6 0 11 5 11 10 0
6 5 10 11 10 5 0 8 -4 5 -8 -5 -9 21 -13 92 -15 17 0 32 -4 32 -8 0 -9 20 -6
39 5 9 6 12 5 7 -2 -4 -7 5 -11 26 -11 87 -2 127 -5 123 -10 -2 -3 22 -6 53
-5 32 1 63 -2 71 -6 8 -4 27 -4 43 0 16 5 30 5 34 -1 3 -6 12 -5 22 3 9 7 13
8 9 2 -4 -7 17 -10 63 -11 47 0 67 4 63 11 -4 6 0 5 9 -2 13 -10 75 -13 285
-11 147 1 272 4 277 7 14 8 71 6 84 -2 7 -4 12 -3 12 2 0 6 10 8 22 4 16 -4
19 -2 13 9 -7 11 -5 11 10 -1 21 -17 24 -17 36 2 7 10 9 10 9 0 0 -7 5 -10 11
-6 12 7 104 15 179 16 25 0 50 3 55 8 6 4 30 8 54 9 24 0 50 6 58 12 11 10 12
8 6 -7 -6 -17 -5 -17 10 -5 10 8 35 15 55 16 21 1 42 4 48 7 5 3 27 7 49 9 22
1 46 7 53 12 8 6 12 5 12 -3 0 -10 3 -10 14 -1 8 7 33 12 55 13 22 0 38 4 36
9 -3 4 3 8 12 8 30 0 69 7 83 16 9 6 11 4 5 -6 -7 -11 -6 -12 7 -2 8 7 18 10
21 6 4 -3 7 -1 7 5 0 7 5 12 11 12 5 0 7 -6 3 -12 -5 -9 -2 -8 9 1 10 8 32 14
49 13 24 -1 28 2 18 8 -11 7 -7 10 15 11 17 1 36 1 43 0 6 -1 12 2 12 7 0 5 6
9 13 10 6 0 26 4 42 7 17 4 35 8 42 8 7 0 10 4 7 9 -3 4 5 8 18 8 13 0 30 6
37 13 11 9 13 9 7 0 -4 -7 -3 -13 3 -13 5 0 11 5 13 12 2 6 13 13 24 15 38 7
44 9 50 16 4 4 16 7 26 7 10 0 18 4 18 9 0 9 48 26 63 23 4 -1 7 3 7 10 0 6 3
8 7 5 3 -4 12 -2 20 4 7 6 13 8 13 5 0 -4 10 2 22 13 11 11 25 18 30 15 4 -3
8 0 8 5 0 6 7 11 15 11 8 0 15 5 15 10 0 6 9 10 21 10 11 0 17 4 14 10 -3 5 1
10 10 10 9 0 27 11 40 25 14 13 25 22 25 19 0 -2 13 9 30 26 16 16 34 30 40
30 6 0 9 4 6 8 -3 5 3 16 12 25 27 25 42 45 42 57 0 6 7 22 16 35 9 14 14 25
10 25 -3 0 -1 11 4 25 6 17 6 25 -1 25 -6 0 -7 6 -3 12 19 30 -9 137 -41 160
-5 4 -7 8 -3 8 4 0 -6 14 -24 30 -17 17 -27 30 -22 30 5 0 -6 8 -23 18 -17 9
-43 26 -56 36 -14 10 -28 18 -32 17 -4 -2 -11 2 -14 7 -3 6 -15 12 -26 14 -11
1 -29 11 -39 20 -10 10 -23 15 -27 12 -5 -3 -27 4 -49 15 -22 10 -37 14 -33 8
4 -7 -1 -6 -10 2 -9 7 -26 11 -37 8 -11 -3 -22 -1 -25 3 -8 13 -92 8 -92 -5 0
-6 10 -12 21 -13 11 0 22 -6 24 -12 2 -5 8 -8 12 -5 5 3 18 -3 30 -15 11 -11
20 -15 20 -8 0 7 7 2 16 -10 8 -12 22 -22 30 -22 8 0 14 -4 14 -10 0 -5 6 -10
13 -10 8 0 24 -11 37 -25 12 -13 27 -22 31 -19 5 3 9 1 9 -4 0 -14 36 -52 44
-45 3 3 6 1 6 -6 0 -6 10 -28 23 -49 26 -43 37 -109 15 -97 -10 6 -11 5 0 -6
6 -7 12 -18 12 -23 0 -6 -5 -4 -10 4 -9 14 -10 12 -10 -15 0 -10 -35 -42 -42
-38 -5 2 -8 -2 -8 -10 0 -15 -167 -107 -194 -107 -9 0 -16 -4 -16 -9 0 -7 -34
-18 -77 -23 -7 -1 -13 -6 -13 -11 0 -6 -3 -7 -7 -4 -3 4 -17 0 -31 -9 -17 -11
-22 -12 -17 -3 6 11 5 12 -6 2 -7 -7 -26 -13 -42 -13 -16 0 -26 -4 -22 -10 3
-5 -2 -9 -12 -8 -28 3 -97 -14 -105 -26 -5 -7 -8 -6 -8 4 0 11 -2 12 -8 3 -4
-7 -23 -13 -41 -15 -18 -1 -35 -6 -37 -10 -3 -5 -10 -6 -15 -2 -5 3 -16 0 -24
-6 -12 -10 -15 -10 -15 1 0 10 -2 11 -8 2 -4 -6 -26 -13 -50 -15 -23 -3 -45
-7 -49 -11 -3 -4 -22 -7 -40 -7 -22 0 -32 -4 -27 -11 4 -8 0 -8 -15 0 -15 9
-21 9 -21 1 0 -7 -6 -10 -12 -7 -7 2 -21 0 -30 -5 -13 -6 -18 -5 -18 4 0 8 -3
9 -8 3 -7 -11 -39 -18 -84 -19 -16 -1 -28 -3 -28 -6 0 -3 -19 -6 -42 -7 -23
-2 -45 -8 -49 -14 -5 -8 -8 -8 -11 1 -3 10 -9 10 -27 0 -19 -10 -22 -10 -15 2
6 10 5 11 -7 2 -8 -6 -36 -11 -63 -12 -28 -1 -53 -7 -57 -14 -5 -8 -9 -9 -9
-2 0 6 -10 10 -22 9 -13 -1 -23 -3 -23 -4 0 -8 -36 -7 -41 0 -3 5 -19 2 -36
-7 -16 -9 -27 -11 -24 -5 4 6 3 11 -3 11 -5 0 -13 -5 -17 -11 -4 -8 -9 -7 -15
2 -7 11 -9 11 -9 -1 0 -13 -1 -13 -10 0 -5 8 -10 10 -10 4 0 -13 -50 -12 -70
1 -8 5 -11 4 -6 -3 4 -6 -1 -11 -11 -11 -51 -2 -121 -3 -143 -2 -24 1 -75 -5
-75 -9 0 -2 -10 -4 -22 -5 -12 -1 -20 2 -17 6 3 5 1 9 -5 9 -5 0 -12 -4 -16
-9 -3 -6 -14 -9 -25 -8 -10 1 -16 5 -14 9 8 13 -11 9 -25 -5 -11 -9 -13 -9 -7
1 4 6 2 12 -3 12 -6 0 -11 -4 -11 -10 0 -5 -5 -10 -11 -10 -5 0 -7 5 -4 10 3
6 2 10 -4 10 -5 0 -13 -5 -16 -10 -5 -8 -11 -8 -19 -1 -7 6 -16 8 -20 4 -11
-11 -66 -12 -60 -2 3 5 1 9 -5 9 -5 0 -13 -5 -16 -10 -4 -7 -11 -7 -18 -2 -7
5 -40 9 -75 8 -34 -1 -62 3 -62 8 0 5 -6 4 -13 -2 -8 -7 -18 -7 -27 -2 -9 6
-17 5 -22 -3 -5 -8 -8 -8 -8 -1 0 7 -17 10 -45 9 -25 -2 -47 0 -50 4 -5 9 -36
8 -53 -3 -6 -4 -12 -3 -12 2 0 6 -9 8 -20 5 -12 -3 -20 0 -20 7 0 10 -4 9 -16
-1 -9 -7 -18 -9 -22 -3 -4 5 -20 11 -36 12 -21 3 -26 1 -20 -10 6 -10 5 -11
-7 -1 -8 6 -34 12 -59 14 -25 1 -51 7 -59 13 -12 9 -13 8 -6 -4 7 -12 6 -13
-6 -3 -8 7 -45 13 -81 15 -37 1 -65 5 -63 8 2 3 -8 6 -23 6 -54 2 -102 8 -102
14 0 4 -10 6 -22 5 -12 -1 -59 6 -105 15 -46 10 -83 15 -83 12 0 -2 -6 0 -12
5 -13 10 -19 11 -73 15 -14 1 -25 6 -25 10 0 4 -16 8 -35 8 -21 0 -35 5 -35
13 0 8 -4 7 -10 -3 -6 -10 -10 -11 -10 -2 0 6 -10 12 -23 12 -13 0 -27 3 -30
7 -4 3 -24 8 -44 10 -20 2 -43 9 -50 15 -7 6 -13 8 -13 5 0 -3 -16 1 -35 9
-19 8 -35 11 -35 8 0 -4 -8 0 -17 7 -15 12 -16 12 -8 -1 5 -10 1 -9 -13 3 -11
11 -26 16 -31 12 -6 -3 -11 -1 -11 5 0 6 -4 8 -10 5 -5 -3 -10 -1 -10 4 0 6
-8 11 -17 11 -21 0 -98 38 -144 71 -18 12 -29 16 -24 8 4 -7 -13 8 -38 35 -26
26 -47 57 -47 68 0 10 -4 17 -8 14 -12 -7 -8 36 6 62 7 12 10 22 7 22 -4 0 1
7 9 16 9 8 16 22 16 30 0 8 5 12 10 9 5 -3 10 1 10 9 0 9 7 16 15 16 8 0 15 7
15 15 0 8 6 14 13 12 6 -1 11 4 9 11 -1 8 2 11 8 7 5 -3 10 -1 10 6 0 7 3 10
6 6 3 -3 20 9 37 26 17 18 31 31 32 30 1 -8 45 11 45 20 0 6 3 8 6 4 3 -3 15
3 27 14 11 10 32 19 46 19 13 0 21 3 18 7 -4 3 -2 12 4 20 11 13 8 19 -4 7z"/>
</g>
</svg>
